<svg width="48" height="48" viewBox="0 0 48 48" fill="none" xmlns="http://www.w3.org/2000/svg">
<path d="M46 24C46 21.2637 41.9099 18.8629 35.7545 17.4996C36.6559 15.1835 36.7251 13.3259 35.7521 12.3518C34.7672 11.368 32.8798 11.448 30.5303 12.3768C29.1717 6.14739 26.7554 2 24 2C21.2446 2 18.8092 6.17723 17.4542 12.4449C15.0236 11.4504 13.0681 11.343 12.0593 12.3518C11.0803 13.3307 11.1555 15.2038 12.0712 17.5378C6.01247 18.9083 2 21.29 2 24C2 26.71 6.07813 29.1311 12.2192 30.4957C11.1663 32.9968 11.0302 35.0143 12.0593 36.0434C13.0788 37.063 15.0665 36.94 17.5342 35.9157C18.9047 41.9816 21.2876 46 24 46C26.7124 46 29.0762 42.0126 30.4491 35.9873C32.8368 36.9472 34.7565 37.0391 35.7521 36.0434C36.7752 35.0191 36.6475 33.0182 35.6089 30.5339C41.8455 29.1765 46 26.7578 46 24ZM26.2838 25.047C28.0519 26.1537 30.3488 27.9253 32.0178 29.5931C34.7111 32.2864 34.3243 33.0075 33.6414 33.6916C32.9574 34.3744 32.2363 34.7612 29.543 32.068C27.8931 30.4181 26.1441 28.151 25.0363 26.3901L24 37.1537L22.9578 26.3352C21.8511 28.1008 20.0902 30.3846 18.4308 32.0429C15.7387 34.7362 15.0164 34.3494 14.3335 33.6665C13.6506 32.9824 13.2638 32.2614 15.9571 29.5681C17.6166 27.9086 19.8968 26.1477 21.6613 25.0422L10.8463 24L21.61 22.965C19.849 21.8559 17.5819 20.1069 15.9321 18.457C13.2388 15.7637 13.6256 15.0427 14.3084 14.3586C14.9913 13.6757 15.7136 13.2889 18.4069 15.9822C20.0759 17.6512 21.8475 19.9481 22.953 21.7174L24 10.8463L25.041 21.6613C26.1477 19.8968 27.9086 17.6166 29.5681 15.9571C32.2613 13.2638 32.9824 13.6506 33.6653 14.3335C34.3494 15.0176 34.7362 15.7387 32.0429 18.432C30.3834 20.0914 28.0996 21.8511 26.3339 22.959L37.1525 24L26.2838 25.047Z" fill="#C62A2A"/>
</svg>
